# xmcd
#
# Track frame offsets: 
#        150
#        20250
#        47775
#        78480
#        117242
#        162032
#        181877
#        211702
#        231100
#        258195
#
# Disc length: 3984 seconds
#
# Revision: 8
# Processed by: cddbd v1.5.2PL0 Copyright (c) Steve Scherf et al.
# Submitted via: ExactAudioCopy v1.3
#
DISCID=720f8e0a
DTITLE=Miles Davis - Aura
DYEAR=1989
DGENRE=Jazz
TTITLE0=Intro
TTITLE1=White
TTITLE2=Yellow
TTITLE3=Orange
TTITLE4=Red
TTITLE5=Green
TTITLE6=Blue
TTITLE7=Electric Red
TTITLE8=Indigo
TTITLE9=Violet
EXTD=YEAR: 1989
EXTT0=
EXTT1=
EXTT2=
EXTT3=
EXTT4=
EXTT5=
EXTT6=
EXTT7=
EXTT8=
EXTT9=
PLAYORDER=
